# xmcd
#
# Track frame offsets:
# 150
# 14822
# 30540
# 44750
# 59890
# 76942
# 92125
# 106712
# 126277
# 147835
# 163017
# 177232
# 198722
# 212640
# 232357
# 245150
# 257037
# 278087
# 294242
# 311770
# 338600
#
# Disc length: 4726 seconds
#
#
# Revision: 4
# Processed by: cddbd v1.5.2PL0 Copyright (c) Steve Scherf et al.
# Submitted via: HACP 1.20
#
DISCID=46127415
DTITLE=Various Artist - Ibiza Uncovered II - Disk 2
DYEAR=2000
DGENRE=misc
TTITLE0=York - OTB
TTITLE1=SuReal - You Take My Breath Away
TTITLE2=Planet Perfecto - Bullet In The Gun
TTITLE3=Fragme - Toca's Miracle
TTITLE4=Madison Avenue - Don't Call Me Baby
TTITLE5=Different Gear vs The Police - When The World Is Running Down
TTITLE6=South St Player - Who Keeps Changing Your Mind
TTITLE7=Kylie Minogue - Spinning Around
TTITLE8=Inaya Day - Feel It
TTITLE9=Coco and Stonebridge - The Beach
TTITLE10=Josh Wink - Lil Louis - Hows Your Evening So Far?
TTITLE11=Louise - 2 Faced
TTITLE12=Watergate - Merry Christmas Mr Lawrence
TTITLE13=Goldenscan - Sunrise
TTITLE14=Jonah - Sssst..
TTITLE15=Novy vs Eniac - Pumpin'
TTITLE16=Velvet Girl - Walking In Sunshine
TTITLE17=Terpischord - The Bells
TTITLE18=DJ Hitchhiker pres Lunatic Asylum - Cabal
TTITLE19=Blank and Jones - The Nightfly
TTITLE20=DuMonde - Tomorrow
EXTD=YEAR:2000
EXTT0=
EXTT1=
EXTT2=
EXTT3=
EXTT4=
EXTT5=
EXTT6=
EXTT7=
EXTT8=
EXTT9=
EXTT10=
EXTT11=
EXTT12=
EXTT13=
EXTT14=
EXTT15=
EXTT16=
EXTT17=
EXTT18=
EXTT19=
EXTT20=
PLAYORDER=
